<?xml version="1.0" encoding="UTF-8"?>
<svg xmlns="http://www.w3.org/2000/svg" width="800" height="400" viewBox="0 0 800 400">
  <defs>
    <filter id="shadow6" x="-10%" y="-10%" width="120%" height="120%">
      <feDropShadow dx="1" dy="1" stdDeviation="1" flood-opacity="0.15"/>
    </filter>
  </defs>
  
  <rect width="800" height="400" fill="#fafafa"/>
  
  <text x="400" y="30" text-anchor="middle" font-family="Microsoft YaHei, Arial" font-size="18" font-weight="bold" fill="#2c3e50">SeekLight 项目排期规划</text>
  
  <!-- 时间轴标题 -->
  <text x="320" y="60" text-anchor="middle" font-family="Microsoft YaHei, Arial" font-size="10" fill="#7f8c8d">Week 1</text>
  <text x="420" y="60" text-anchor="middle" font-family="Microsoft YaHei, Arial" font-size="10" fill="#7f8c8d">Week 2</text>
  <text x="520" y="60" text-anchor="middle" font-family="Microsoft YaHei, Arial" font-size="10" fill="#7f8c8d">Week 3</text>
  <text x="620" y="60" text-anchor="middle" font-family="Microsoft YaHei, Arial" font-size="10" fill="#7f8c8d">Week 4</text>
  <text x="720" y="60" text-anchor="middle" font-family="Microsoft YaHei, Arial" font-size="10" fill="#7f8c8d">Week 5</text>
  
  <!-- 网格线 -->
  <line x1="270" y1="70" x2="270" y2="350" stroke="#ecf0f1" stroke-width="1"/>
  <line x1="370" y1="70" x2="370" y2="350" stroke="#ecf0f1" stroke-width="1"/>
  <line x1="470" y1="70" x2="470" y2="350" stroke="#ecf0f1" stroke-width="1"/>
  <line x1="570" y1="70" x2="570" y2="350" stroke="#ecf0f1" stroke-width="1"/>
  <line x1="670" y1="70" x2="670" y2="350" stroke="#ecf0f1" stroke-width="1"/>
  <line x1="770" y1="70" x2="770" y2="350" stroke="#ecf0f1" stroke-width="1"/>
  
  <!-- 已完成阶段 -->
  <text x="130" y="95" text-anchor="middle" font-family="Microsoft YaHei, Arial" font-size="11" fill="#2c3e50">Phase 0-4（已完成）</text>
  <rect x="50" y="105" width="160" height="30" rx="5" fill="#27ae60" filter="url(#shadow6)"/>
  <text x="130" y="125" text-anchor="middle" font-family="Arial" font-size="10" fill="white">端侧VLM + 语义搜索 ✓</text>
  
  <!-- Phase 5 -->
  <text x="130" y="160" text-anchor="middle" font-family="Microsoft YaHei, Arial" font-size="11" fill="#2c3e50">Phase 5: 快速识别</text>
  <rect x="270" y="145" width="100" height="30" rx="5" fill="#3498db" filter="url(#shadow6)"/>
  <text x="320" y="165" text-anchor="middle" font-family="Arial" font-size="10" fill="white">ML Kit + ZXing</text>
  
  <!-- Phase 6 -->
  <text x="130" y="205" text-anchor="middle" font-family="Microsoft YaHei, Arial" font-size="11" fill="#2c3e50">Phase 6: 结构化提取</text>
  <rect x="370" y="190" width="100" height="30" rx="5" fill="#9b59b6" filter="url(#shadow6)"/>
  <text x="420" y="210" text-anchor="middle" font-family="Arial" font-size="10" fill="white">价格/日期/单号</text>
  
  <!-- Phase 7 -->
  <text x="130" y="250" text-anchor="middle" font-family="Microsoft YaHei, Arial" font-size="11" fill="#2c3e50">Phase 7: 截图监听</text>
  <rect x="470" y="235" width="100" height="30" rx="5" fill="#e67e22" filter="url(#shadow6)"/>
  <text x="520" y="255" text-anchor="middle" font-family="Arial" font-size="10" fill="white">服务 + 悬浮窗</text>
  
  <!-- Phase 8 -->
  <text x="130" y="295" text-anchor="middle" font-family="Microsoft YaHei, Arial" font-size="11" fill="#2c3e50">Phase 8: 跨应用流转</text>
  <rect x="570" y="280" width="100" height="30" rx="5" fill="#e74c3c" filter="url(#shadow6)"/>
  <text x="620" y="300" text-anchor="middle" font-family="Arial" font-size="10" fill="white">Deep Link</text>
  
  <!-- 提交节点 -->
  <text x="130" y="340" text-anchor="middle" font-family="Microsoft YaHei, Arial" font-size="11" fill="#2c3e50">参赛提交</text>
  <circle cx="720" cy="335" r="15" fill="#f1c40f" filter="url(#shadow6)"/>
  <text x="720" y="340" text-anchor="middle" font-family="Arial" font-size="10" fill="#2c3e50">★</text>
  
  <!-- 图例 -->
  <rect x="50" y="365" width="15" height="15" rx="3" fill="#27ae60"/>
  <text x="70" y="377" font-family="Microsoft YaHei, Arial" font-size="10" fill="#7f8c8d">已完成</text>
  <rect x="130" y="365" width="15" height="15" rx="3" fill="#3498db"/>
  <text x="150" y="377" font-family="Microsoft YaHei, Arial" font-size="10" fill="#7f8c8d">进行中</text>
  <rect x="210" y="365" width="15" height="15" rx="3" fill="#e67e22"/>
  <text x="230" y="377" font-family="Microsoft YaHei, Arial" font-size="10" fill="#7f8c8d">规划中</text>
</svg>