<?xml version="1.0" encoding="UTF-8"?>
<svg xmlns="http://www.w3.org/2000/svg" width="800" height="500" viewBox="0 0 800 500">
  <defs>
    <filter id="shadow2" x="-10%" y="-10%" width="120%" height="120%">
      <feDropShadow dx="2" dy="2" stdDeviation="2" flood-opacity="0.15"/>
    </filter>
  </defs>
  
  <rect width="800" height="500" fill="#f5f6fa"/>
  
  <text x="400" y="35" text-anchor="middle" font-family="Microsoft YaHei, Arial" font-size="20" font-weight="bold" fill="#2c3e50">SeekLight 技术栈全景</text>
  
  <!-- UI层 -->
  <rect x="50" y="55" width="700" height="80" rx="10" fill="#3498db" filter="url(#shadow2)"/>
  <text x="400" y="80" text-anchor="middle" font-family="Microsoft YaHei, Arial" font-size="14" fill="white" font-weight="bold">表现层 (Presentation Layer)</text>
  <rect x="70" y="92" width="140" height="35" rx="5" fill="white"/>
  <text x="140" y="114" text-anchor="middle" font-family="Arial" font-size="11" fill="#2c3e50">Jetpack Compose</text>
  <rect x="225" y="92" width="140" height="35" rx="5" fill="white"/>
  <text x="295" y="114" text-anchor="middle" font-family="Arial" font-size="11" fill="#2c3e50">Material Design 3</text>
  <rect x="380" y="92" width="140" height="35" rx="5" fill="white"/>
  <text x="450" y="114" text-anchor="middle" font-family="Arial" font-size="11" fill="#2c3e50">StateFlow</text>
  <rect x="535" y="92" width="195" height="35" rx="5" fill="white"/>
  <text x="632" y="114" text-anchor="middle" font-family="Arial" font-size="11" fill="#2c3e50">ViewModel + Coroutines</text>
  
  <!-- AI层 -->
  <rect x="50" y="150" width="700" height="100" rx="10" fill="#9b59b6" filter="url(#shadow2)"/>
  <text x="400" y="175" text-anchor="middle" font-family="Microsoft YaHei, Arial" font-size="14" fill="white" font-weight="bold">AI推理层 (AI Inference Layer)</text>
  <rect x="70" y="192" width="165" height="45" rx="5" fill="white"/>
  <text x="152" y="210" text-anchor="middle" font-family="Arial" font-size="11" fill="#2c3e50">Qwen3-VL-2B</text>
  <text x="152" y="226" text-anchor="middle" font-family="Arial" font-size="9" fill="#7f8c8d">(1.37GB, 端侧VLM)</text>
  <rect x="250" y="192" width="155" height="45" rx="5" fill="white"/>
  <text x="327" y="210" text-anchor="middle" font-family="Arial" font-size="11" fill="#2c3e50">MNN Framework</text>
  <text x="327" y="226" text-anchor="middle" font-family="Arial" font-size="9" fill="#7f8c8d">(阿里开源推理框架)</text>
  <rect x="420" y="192" width="155" height="45" rx="5" fill="white"/>
  <text x="497" y="210" text-anchor="middle" font-family="Arial" font-size="11" fill="#2c3e50">MiniLM-L6-v2</text>
  <text x="497" y="226" text-anchor="middle" font-family="Arial" font-size="9" fill="#7f8c8d">(90MB, 文本嵌入)</text>
  <rect x="590" y="192" width="140" height="45" rx="5" fill="white"/>
  <text x="660" y="210" text-anchor="middle" font-family="Arial" font-size="11" fill="#2c3e50">ONNX Runtime</text>
  <text x="660" y="226" text-anchor="middle" font-family="Arial" font-size="9" fill="#7f8c8d">(跨平台推理)</text>
  
  <!-- 数据层 -->
  <rect x="50" y="265" width="700" height="80" rx="10" fill="#27ae60" filter="url(#shadow2)"/>
  <text x="400" y="290" text-anchor="middle" font-family="Microsoft YaHei, Arial" font-size="14" fill="white" font-weight="bold">数据层 (Data Layer)</text>
  <rect x="70" y="305" width="200" height="30" rx="5" fill="white"/>
  <text x="170" y="325" text-anchor="middle" font-family="Arial" font-size="11" fill="#2c3e50">Room Database 2.6.1</text>
  <rect x="285" y="305" width="200" height="30" rx="5" fill="white"/>
  <text x="385" y="325" text-anchor="middle" font-family="Arial" font-size="11" fill="#2c3e50">ImageMemory Entity</text>
  <rect x="500" y="305" width="230" height="30" rx="5" fill="white"/>
  <text x="615" y="325" text-anchor="middle" font-family="Arial" font-size="11" fill="#2c3e50">向量索引 (384维 Float)</text>
  
  <!-- 工具层 -->
  <rect x="50" y="360" width="700" height="80" rx="10" fill="#e67e22" filter="url(#shadow2)"/>
  <text x="400" y="385" text-anchor="middle" font-family="Microsoft YaHei, Arial" font-size="14" fill="white" font-weight="bold">工具层 (Utility Layer)</text>
  <rect x="70" y="400" width="150" height="30" rx="5" fill="white"/>
  <text x="145" y="420" text-anchor="middle" font-family="Arial" font-size="11" fill="#2c3e50">ML Kit OCR</text>
  <rect x="235" y="400" width="150" height="30" rx="5" fill="white"/>
  <text x="310" y="420" text-anchor="middle" font-family="Arial" font-size="11" fill="#2c3e50">ZXing 4.3.0</text>
  <rect x="400" y="400" width="150" height="30" rx="5" fill="white"/>
  <text x="475" y="420" text-anchor="middle" font-family="Arial" font-size="11" fill="#2c3e50">OkHttp 4.12</text>
  <rect x="565" y="400" width="165" height="30" rx="5" fill="white"/>
  <text x="647" y="420" text-anchor="middle" font-family="Arial" font-size="11" fill="#2c3e50">Kotlin Serialization</text>
  
  <!-- 平台层 -->
  <rect x="50" y="455" width="700" height="35" rx="10" fill="#34495e" filter="url(#shadow2)"/>
  <text x="400" y="478" text-anchor="middle" font-family="Microsoft YaHei, Arial" font-size="12" fill="white" font-weight="bold">Android Platform: SDK 36 (Android 16) | minSdk 24 | Kotlin 2.0.21 | JVM 11</text>
</svg>