<?xml version="1.0" encoding="UTF-8"?>
<svg xmlns="http://www.w3.org/2000/svg" width="800" height="420" viewBox="0 0 800 420">
  <defs>
    <linearGradient id="gradInput" x1="0%" y1="0%" x2="100%" y2="0%">
      <stop offset="0%" style="stop-color:#3498db"/>
      <stop offset="100%" style="stop-color:#2980b9"/>
    </linearGradient>
    <linearGradient id="gradProcess" x1="0%" y1="0%" x2="100%" y2="0%">
      <stop offset="0%" style="stop-color:#F4A261"/>
      <stop offset="100%" style="stop-color:#E76F51"/>
    </linearGradient>
    <linearGradient id="gradOutput" x1="0%" y1="0%" x2="100%" y2="0%">
      <stop offset="0%" style="stop-color:#2A9D8F"/>
      <stop offset="100%" style="stop-color:#264653"/>
    </linearGradient>
    <filter id="shadowFunc">
      <feDropShadow dx="0" dy="2" stdDeviation="3" flood-color="#000" flood-opacity="0.12"/>
    </filter>
  </defs>
  
  <rect width="800" height="420" fill="#FAFAFA"/>
  
  <!-- 标题 -->
  <text x="400" y="30" font-family="SimHei, sans-serif" font-size="18" font-weight="bold" fill="#353535" text-anchor="middle">多模态语义搜索：「用一句话，找到任何截图」</text>
  
  <!-- 左侧：用户输入 -->
  <g transform="translate(30, 60)">
    <rect x="0" y="0" width="180" height="300" rx="10" fill="#FFFFFF" stroke="#3498db" stroke-width="2" filter="url(#shadowFunc)"/>
    <rect x="0" y="0" width="180" height="40" rx="10 10 0 0" fill="url(#gradInput)"/>
    <text x="90" y="26" font-family="SimHei, sans-serif" font-size="14" font-weight="bold" fill="#FFFFFF" text-anchor="middle">用户输入</text>
    
    <g transform="translate(15, 55)">
      <rect x="0" y="0" width="150" height="50" rx="6" fill="#E3F2FD"/>
      <text x="10" y="20" font-family="SimSun, serif" font-size="11" fill="#1565C0">「上周的咖啡发票」</text>
      <text x="10" y="38" font-family="SimSun, serif" font-size="10" fill="#78909C">→ 星巴克小票截图</text>
    </g>
    
    <g transform="translate(15, 115)">
      <rect x="0" y="0" width="150" height="50" rx="6" fill="#FFF8E1"/>
      <text x="10" y="20" font-family="SimSun, serif" font-size="11" fill="#F57F17">「红色的裙子」</text>
      <text x="10" y="38" font-family="SimSun, serif" font-size="10" fill="#78909C">→ 电商商品截图</text>
    </g>
    
    <g transform="translate(15, 175)">
      <rect x="0" y="0" width="150" height="50" rx="6" fill="#E8F5E9"/>
      <text x="10" y="20" font-family="SimSun, serif" font-size="11" fill="#2E7D32">「和小明的聊天」</text>
      <text x="10" y="38" font-family="SimSun, serif" font-size="10" fill="#78909C">→ 微信聊天截图</text>
    </g>
    
    <g transform="translate(15, 235)">
      <rect x="0" y="0" width="150" height="50" rx="6" fill="#F3E5F5"/>
      <text x="10" y="20" font-family="SimSun, serif" font-size="11" fill="#7B1FA2">「上次去海边」</text>
      <text x="10" y="38" font-family="SimSun, serif" font-size="10" fill="#78909C">→ 旅行照片集合</text>
    </g>
  </g>
  
  <!-- 箭头1 -->
  <g transform="translate(220, 200)">
    <path d="M0,10 L40,10 L40,0 L55,15 L40,30 L40,20 L0,20 Z" fill="#3498db"/>
  </g>
  
  <!-- 中间：处理流程 -->
  <g transform="translate(290, 60)">
    <rect x="0" y="0" width="220" height="300" rx="10" fill="#FFFFFF" stroke="#E76F51" stroke-width="2" filter="url(#shadowFunc)"/>
    <rect x="0" y="0" width="220" height="40" rx="10 10 0 0" fill="url(#gradProcess)"/>
    <text x="110" y="26" font-family="SimHei, sans-serif" font-size="14" font-weight="bold" fill="#FFFFFF" text-anchor="middle">智能处理管道</text>
    
    <g transform="translate(15, 55)">
      <rect x="0" y="0" width="190" height="55" rx="6" fill="#FFF3E0" stroke="#FF9800" stroke-width="1"/>
      <text x="95" y="20" font-family="SimHei, sans-serif" font-size="12" fill="#E65100" text-anchor="middle">1. 查询向量化</text>
      <text x="95" y="40" font-family="SimSun, serif" font-size="10" fill="#455A64" text-anchor="middle">MiniLM-L6-v2 → 384维向量</text>
    </g>
    
    <g transform="translate(15, 120)">
      <rect x="0" y="0" width="190" height="55" rx="6" fill="#E8F5E9" stroke="#4CAF50" stroke-width="1"/>
      <text x="95" y="20" font-family="SimHei, sans-serif" font-size="12" fill="#2E7D32" text-anchor="middle">2. 向量检索</text>
      <text x="95" y="40" font-family="SimSun, serif" font-size="10" fill="#455A64" text-anchor="middle">HNSW索引 | 余弦相似度</text>
    </g>
    
    <g transform="translate(15, 185)">
      <rect x="0" y="0" width="190" height="55" rx="6" fill="#E3F2FD" stroke="#2196F3" stroke-width="1"/>
      <text x="95" y="20" font-family="SimHei, sans-serif" font-size="12" fill="#1565C0" text-anchor="middle">3. 记忆层增强</text>
      <text x="95" y="40" font-family="SimSun, serif" font-size="10" fill="#455A64" text-anchor="middle">长期记忆关联 | 事件聚合</text>
    </g>
    
    <g transform="translate(15, 250)">
      <rect x="0" y="0" width="190" height="40" rx="6" fill="#F3E5F5" stroke="#9C27B0" stroke-width="1"/>
      <text x="95" y="26" font-family="SimHei, sans-serif" font-size="12" fill="#6A1B9A" text-anchor="middle">4. 结果排序与返回</text>
    </g>
  </g>
  
  <!-- 箭头2 -->
  <g transform="translate(520, 200)">
    <path d="M0,10 L40,10 L40,0 L55,15 L40,30 L40,20 L0,20 Z" fill="#E76F51"/>
  </g>
  
  <!-- 右侧：搜索结果 -->
  <g transform="translate(590, 60)">
    <rect x="0" y="0" width="180" height="300" rx="10" fill="#FFFFFF" stroke="#2A9D8F" stroke-width="2" filter="url(#shadowFunc)"/>
    <rect x="0" y="0" width="180" height="40" rx="10 10 0 0" fill="url(#gradOutput)"/>
    <text x="90" y="26" font-family="SimHei, sans-serif" font-size="14" font-weight="bold" fill="#FFFFFF" text-anchor="middle">搜索结果</text>
    
    <g transform="translate(15, 55)">
      <rect x="0" y="0" width="150" height="70" rx="6" fill="#E0F2F1"/>
      <text x="75" y="20" font-family="SimHei, sans-serif" font-size="11" fill="#00695C" text-anchor="middle">精确匹配</text>
      <text x="75" y="40" font-family="SimSun, serif" font-size="10" fill="#455A64" text-anchor="middle">相似度 &gt; 0.85</text>
      <text x="75" y="58" font-family="SimSun, serif" font-size="10" fill="#4CAF50" text-anchor="middle">✓ 直接返回目标图片</text>
    </g>
    
    <g transform="translate(15, 135)">
      <rect x="0" y="0" width="150" height="70" rx="6" fill="#FFF8E1"/>
      <text x="75" y="20" font-family="SimHei, sans-serif" font-size="11" fill="#F57F17" text-anchor="middle">模糊匹配</text>
      <text x="75" y="40" font-family="SimSun, serif" font-size="10" fill="#455A64" text-anchor="middle">相似度 0.6-0.85</text>
      <text x="75" y="58" font-family="SimSun, serif" font-size="10" fill="#FF9800" text-anchor="middle">◐ 候选列表供选择</text>
    </g>
    
    <g transform="translate(15, 215)">
      <rect x="0" y="0" width="150" height="70" rx="6" fill="#FCE4EC"/>
      <text x="75" y="20" font-family="SimHei, sans-serif" font-size="11" fill="#C2185B" text-anchor="middle">事件聚合</text>
      <text x="75" y="40" font-family="SimSun, serif" font-size="10" fill="#455A64" text-anchor="middle">长期记忆命中</text>
      <text x="75" y="58" font-family="SimSun, serif" font-size="10" fill="#E91E63" text-anchor="middle">★ 返回整个事件集合</text>
    </g>
  </g>
  
  <!-- 底部说明 -->
  <text x="400" y="395" font-family="SimSun, serif" font-size="12" fill="#78909C" text-anchor="middle">突破传统相册「时间+地点」索引限制，支持自然语言语义检索</text>
</svg>