<?xml version="1.0" encoding="UTF-8"?>
<svg xmlns="http://www.w3.org/2000/svg" width="800" height="400" viewBox="0 0 800 400">
  <defs>
    <linearGradient id="gradNeed" x1="0%" y1="0%" x2="0%" y2="100%">
      <stop offset="0%" style="stop-color:#3498db"/>
      <stop offset="100%" style="stop-color:#2980b9"/>
    </linearGradient>
    <linearGradient id="gradMemory" x1="0%" y1="0%" x2="0%" y2="100%">
      <stop offset="0%" style="stop-color:#F4A261"/>
      <stop offset="100%" style="stop-color:#E76F51"/>
    </linearGradient>
    <filter id="shadowSmall">
      <feDropShadow dx="0" dy="2" stdDeviation="3" flood-color="#000" flood-opacity="0.12"/>
    </filter>
  </defs>
  
  <rect width="800" height="400" fill="#FAFAFA"/>
  
  <!-- 标题 -->
  <text x="400" y="30" font-family="SimHei, sans-serif" font-size="18" font-weight="bold" fill="#353535" text-anchor="middle">用户检索需求 → 记忆层响应映射</text>
  
  <!-- 左侧：用户需求 -->
  <g transform="translate(30, 55)">
    <rect x="0" y="0" width="340" height="300" rx="10" fill="#FFFFFF" stroke="#3498db" stroke-width="2" filter="url(#shadowSmall)"/>
    <rect x="0" y="0" width="340" height="40" rx="10 10 0 0" fill="url(#gradNeed)"/>
    <text x="170" y="26" font-family="SimHei, sans-serif" font-size="14" font-weight="bold" fill="#FFFFFF" text-anchor="middle">用户检索场景</text>
    
    <!-- 场景1 -->
    <g transform="translate(15, 55)">
      <rect x="0" y="0" width="310" height="70" rx="6" fill="#E3F2FD"/>
      <text x="10" y="20" font-family="SimHei, sans-serif" font-size="12" fill="#1565C0">场景1：精确查询</text>
      <text x="10" y="40" font-family="SimSun, serif" font-size="11" fill="#455A64">「2026年1月15日的发票」</text>
      <text x="10" y="58" font-family="SimSun, serif" font-size="10" fill="#78909C">特征：有明确时间/对象，单图匹配</text>
    </g>
    
    <!-- 场景2 -->
    <g transform="translate(15, 135)">
      <rect x="0" y="0" width="310" height="70" rx="6" fill="#FFF8E1"/>
      <text x="10" y="20" font-family="SimHei, sans-serif" font-size="12" fill="#F57F17">场景2：模糊查询</text>
      <text x="10" y="40" font-family="SimSun, serif" font-size="11" fill="#455A64">「上次去海边的照片」「旅行时拍的」</text>
      <text x="10" y="58" font-family="SimSun, serif" font-size="10" fill="#78909C">特征：跨时间跨图片，需要推断「经历」</text>
    </g>
    
    <!-- 场景3 -->
    <g transform="translate(15, 215)">
      <rect x="0" y="0" width="310" height="70" rx="6" fill="#F3E5F5"/>
      <text x="10" y="20" font-family="SimHei, sans-serif" font-size="12" fill="#7B1FA2">场景3：偏好推荐</text>
      <text x="10" y="40" font-family="SimSun, serif" font-size="11" fill="#455A64">「推荐这张食物照片的滤镜」</text>
      <text x="10" y="58" font-family="SimSun, serif" font-size="10" fill="#78909C">特征：个性化，需要学习用户习惯</text>
    </g>
  </g>
  
  <!-- 中间：映射箭头 -->
  <g transform="translate(380, 140)">
    <path d="M0,55 L30,55 L30,35 L50,60 L30,85 L30,65 L0,65 Z" fill="#2A9D8F"/>
    <path d="M0,135 L30,135 L30,115 L50,140 L30,165 L30,145 L0,145 Z" fill="#2A9D8F"/>
    <path d="M0,215 L30,215 L30,195 L50,220 L30,245 L30,225 L0,225 Z" fill="#2A9D8F"/>
  </g>
  
  <!-- 右侧：记忆层 -->
  <g transform="translate(430, 55)">
    <rect x="0" y="0" width="340" height="300" rx="10" fill="#FFFFFF" stroke="#E76F51" stroke-width="2" filter="url(#shadowSmall)"/>
    <rect x="0" y="0" width="340" height="40" rx="10 10 0 0" fill="url(#gradMemory)"/>
    <text x="170" y="26" font-family="SimHei, sans-serif" font-size="14" font-weight="bold" fill="#FFFFFF" text-anchor="middle">记忆层响应</text>
    
    <!-- 短期记忆 -->
    <g transform="translate(15, 55)">
      <rect x="0" y="0" width="310" height="70" rx="6" fill="#E8F5E9" stroke="#4CAF50" stroke-width="1"/>
      <text x="10" y="20" font-family="SimHei, sans-serif" font-size="12" fill="#2E7D32">短期记忆（ImageMemory）</text>
      <text x="10" y="40" font-family="SimSun, serif" font-size="11" fill="#455A64">直接检索：向量相似度 + 时间过滤</text>
      <text x="10" y="58" font-family="SimSun, serif" font-size="10" fill="#4CAF50">✓ 已实现 | TRL 7级</text>
    </g>
    
    <!-- 长期记忆 -->
    <g transform="translate(15, 135)">
      <rect x="0" y="0" width="310" height="70" rx="6" fill="#FFF3E0" stroke="#FF9800" stroke-width="1"/>
      <text x="10" y="20" font-family="SimHei, sans-serif" font-size="12" fill="#E65100">长期记忆（HighLevelFact）</text>
      <text x="10" y="40" font-family="SimSun, serif" font-size="11" fill="#455A64">Reflection推断 → 关联多图 → 返回事件</text>
      <text x="10" y="58" font-family="SimSun, serif" font-size="10" fill="#FF9800">⚡ 核心创新 | TRL 3级</text>
    </g>
    
    <!-- 隐式记忆 -->
    <g transform="translate(15, 215)">
      <rect x="0" y="0" width="310" height="70" rx="6" fill="#F3E5F5" stroke="#9C27B0" stroke-width="1"/>
      <text x="10" y="20" font-family="SimHei, sans-serif" font-size="12" fill="#6A1B9A">隐式记忆（UserPreference）</text>
      <text x="10" y="40" font-family="SimSun, serif" font-size="11" fill="#455A64">EMA偏好更新 → 场景化推荐</text>
      <text x="10" y="58" font-family="SimSun, serif" font-size="10" fill="#9C27B0">⚡ 差异化能力 | TRL 3级</text>
    </g>
  </g>
  
  <!-- 底部说明 -->
  <rect x="150" y="365" width="500" height="25" rx="4" fill="#FFF8E1" stroke="#FFB74D" stroke-width="1"/>
  <text x="400" y="382" font-family="SimSun, serif" font-size="11" fill="#E65100" text-anchor="middle">长期记忆层的Reflection机制是拾光区别于所有竞品的核心技术壁垒</text>
</svg>