<?xml version="1.0" encoding="UTF-8"?>
<svg xmlns="http://www.w3.org/2000/svg" width="800" height="380" viewBox="0 0 800 380">
  <defs>
    <linearGradient id="gradVault1" x1="0%" y1="0%" x2="100%" y2="100%">
      <stop offset="0%" style="stop-color:#1976D2"/>
      <stop offset="100%" style="stop-color:#0D47A1"/>
    </linearGradient>
    <linearGradient id="gradVault2" x1="0%" y1="0%" x2="100%" y2="100%">
      <stop offset="0%" style="stop-color:#7B1FA2"/>
      <stop offset="100%" style="stop-color:#4A148C"/>
    </linearGradient>
    <filter id="shadowVault">
      <feDropShadow dx="0" dy="3" stdDeviation="4" flood-color="#000" flood-opacity="0.15"/>
    </filter>
  </defs>
  
  <rect width="800" height="380" fill="#FAFAFA"/>
  
  <!-- 标题 -->
  <text x="400" y="30" font-family="SimHei, sans-serif" font-size="18" font-weight="bold" fill="#353535" text-anchor="middle">隐私保护双闭环：数据不出端 + 数据不被看见</text>
  
  <!-- 左侧闭环：端侧推理 -->
  <g transform="translate(50, 60)">
    <rect x="0" y="0" width="320" height="260" rx="12" fill="#FFFFFF" stroke="#1976D2" stroke-width="2" filter="url(#shadowVault)"/>
    <rect x="0" y="0" width="320" height="45" rx="12 12 0 0" fill="url(#gradVault1)"/>
    <text x="160" y="30" font-family="SimHei, sans-serif" font-size="15" font-weight="bold" fill="#FFFFFF" text-anchor="middle">闭环一：数据不出端</text>
    
    <g transform="translate(20, 60)">
      <rect x="0" y="0" width="280" height="45" rx="6" fill="#E3F2FD"/>
      <text x="140" y="18" font-family="SimHei, sans-serif" font-size="12" fill="#1565C0" text-anchor="middle">端侧VLM推理</text>
      <text x="140" y="36" font-family="SimSun, serif" font-size="10" fill="#455A64" text-anchor="middle">Qwen3-VL-2B | MNN框架 | 本地执行</text>
    </g>
    
    <g transform="translate(20, 115)">
      <rect x="0" y="0" width="280" height="45" rx="6" fill="#E8F5E9"/>
      <text x="140" y="18" font-family="SimHei, sans-serif" font-size="12" fill="#2E7D32" text-anchor="middle">本地向量数据库</text>
      <text x="140" y="36" font-family="SimSun, serif" font-size="10" fill="#455A64" text-anchor="middle">ObjectBox HNSW | SQLite | 设备存储</text>
    </g>
    
    <g transform="translate(20, 170)">
      <rect x="0" y="0" width="280" height="45" rx="6" fill="#FFF3E0"/>
      <text x="140" y="18" font-family="SimHei, sans-serif" font-size="12" fill="#E65100" text-anchor="middle">云端增强（可选）</text>
      <text x="140" y="36" font-family="SimSun, serif" font-size="10" fill="#455A64" text-anchor="middle">用户主动开启 | 知情同意 | TLS 1.3加密</text>
    </g>
    
    <rect x="20" y="225" width="280" height="25" rx="4" fill="#BBDEFB"/>
    <text x="160" y="242" font-family="SimSun, serif" font-size="11" fill="#0D47A1" text-anchor="middle">✓ 符合PIPL数据最小化原则</text>
  </g>
  
  <!-- 中间连接 -->
  <g transform="translate(385, 180)">
    <text x="15" y="0" font-family="SimHei, sans-serif" font-size="28" fill="#2A9D8F" text-anchor="middle">+</text>
    <text x="15" y="25" font-family="SimSun, serif" font-size="11" fill="#78909C" text-anchor="middle">协同</text>
  </g>
  
  <!-- 右侧闭环：隐私保险箱 -->
  <g transform="translate(430, 60)">
    <rect x="0" y="0" width="320" height="260" rx="12" fill="#FFFFFF" stroke="#7B1FA2" stroke-width="2" filter="url(#shadowVault)"/>
    <rect x="0" y="0" width="320" height="45" rx="12 12 0 0" fill="url(#gradVault2)"/>
    <text x="160" y="30" font-family="SimHei, sans-serif" font-size="15" font-weight="bold" fill="#FFFFFF" text-anchor="middle">闭环二：数据不被看见</text>
    
    <g transform="translate(20, 60)">
      <rect x="0" y="0" width="280" height="45" rx="6" fill="#F3E5F5"/>
      <text x="140" y="18" font-family="SimHei, sans-serif" font-size="12" fill="#7B1FA2" text-anchor="middle">敏感内容检测</text>
      <text x="140" y="36" font-family="SimSun, serif" font-size="10" fill="#455A64" text-anchor="middle">身份证 | 银行卡 | 密码 | 合同</text>
    </g>
    
    <g transform="translate(20, 115)">
      <rect x="0" y="0" width="280" height="45" rx="6" fill="#FCE4EC"/>
      <text x="140" y="18" font-family="SimHei, sans-serif" font-size="12" fill="#C2185B" text-anchor="middle">自动隔离加密</text>
      <text x="140" y="36" font-family="SimSun, serif" font-size="10" fill="#455A64" text-anchor="middle">EncryptedFile API | AES-256-GCM</text>
    </g>
    
    <g transform="translate(20, 170)">
      <rect x="0" y="0" width="280" height="45" rx="6" fill="#EDE7F6"/>
      <text x="140" y="18" font-family="SimHei, sans-serif" font-size="12" fill="#512DA8" text-anchor="middle">生物识别解锁</text>
      <text x="140" y="36" font-family="SimSun, serif" font-size="10" fill="#455A64" text-anchor="middle">BiometricPrompt | 指纹/面部 | 主时间线隐藏</text>
    </g>
    
    <rect x="20" y="225" width="280" height="25" rx="4" fill="#E1BEE7"/>
    <text x="160" y="242" font-family="SimSun, serif" font-size="11" fill="#4A148C" text-anchor="middle">✓ 防止他人窥探敏感照片</text>
  </g>
  
  <!-- 底部总结 -->
  <rect x="200" y="335" width="400" height="30" rx="6" fill="#E8F5E9" stroke="#4CAF50" stroke-width="1"/>
  <text x="400" y="355" font-family="SimHei, sans-serif" font-size="12" fill="#2E7D32" text-anchor="middle">双闭环协同 = 完整的隐私保护方案</text>
</svg>