<?xml version="1.0" encoding="UTF-8"?>
<svg xmlns="http://www.w3.org/2000/svg" width="800" height="450" viewBox="0 0 800 450">
  <defs>
    <filter id="shadow8"><feDropShadow dx="2" dy="2" stdDeviation="3" flood-opacity="0.15"/></filter>
    <marker id="arrow" markerWidth="10" markerHeight="10" refX="9" refY="3" orient="auto">
      <path d="M0,0 L0,6 L9,3 z" fill="#94a3b8"/>
    </marker>
  </defs>
  <rect width="800" height="450" fill="#f8fafc"/>
  <text x="400" y="35" text-anchor="middle" font-family="Microsoft YaHei" font-size="22" font-weight="bold" fill="#1e293b">用户使用旅程图</text>
  
  <!-- 时间线 -->
  <line x1="80" y1="100" x2="720" y2="100" stroke="#cbd5e1" stroke-width="3" marker-end="url(#arrow)"/>
  
  <!-- 阶段节点 -->
  <circle cx="120" cy="100" r="25" fill="#3b82f6" filter="url(#shadow8)"/>
  <text x="120" y="105" text-anchor="middle" font-family="Arial" font-size="14" fill="white" font-weight="bold">1</text>
  <text x="120" y="145" text-anchor="middle" font-family="Microsoft YaHei" font-size="12" font-weight="bold" fill="#334155">截图</text>
  
  <circle cx="260" cy="100" r="25" fill="#8b5cf6" filter="url(#shadow8)"/>
  <text x="260" y="105" text-anchor="middle" font-family="Arial" font-size="14" fill="white" font-weight="bold">2</text>
  <text x="260" y="145" text-anchor="middle" font-family="Microsoft YaHei" font-size="12" font-weight="bold" fill="#334155">监听识别</text>
  
  <circle cx="400" cy="100" r="25" fill="#ec4899" filter="url(#shadow8)"/>
  <text x="400" y="105" text-anchor="middle" font-family="Arial" font-size="14" fill="white" font-weight="bold">3</text>
  <text x="400" y="145" text-anchor="middle" font-family="Microsoft YaHei" font-size="12" font-weight="bold" fill="#334155">智能建议</text>
  
  <circle cx="540" cy="100" r="25" fill="#f59e0b" filter="url(#shadow8)"/>
  <text x="540" y="105" text-anchor="middle" font-family="Arial" font-size="14" fill="white" font-weight="bold">4</text>
  <text x="540" y="145" text-anchor="middle" font-family="Microsoft YaHei" font-size="12" font-weight="bold" fill="#334155">语义搜索</text>
  
  <circle cx="680" cy="100" r="25" fill="#22c55e" filter="url(#shadow8)"/>
  <text x="680" y="105" text-anchor="middle" font-family="Arial" font-size="14" fill="white" font-weight="bold">5</text>
  <text x="680" y="145" text-anchor="middle" font-family="Microsoft YaHei" font-size="12" font-weight="bold" fill="#334155">精准定位</text>
  
  <!-- 详情卡片 -->
  <rect x="60" y="170" width="120" height="120" rx="8" fill="white" stroke="#3b82f6" stroke-width="2" filter="url(#shadow8)"/>
  <text x="120" y="195" text-anchor="middle" font-family="Microsoft YaHei" font-size="11" fill="#64748b">用户截图保存</text>
  <text x="120" y="215" text-anchor="middle" font-family="Microsoft YaHei" font-size="11" fill="#64748b">商品/票据/聊天</text>
  <text x="120" y="245" text-anchor="middle" font-family="Arial" font-size="10" fill="#3b82f6">触发</text>
  <text x="120" y="265" text-anchor="middle" font-family="Microsoft YaHei" font-size="10" fill="#3b82f6">Screenshot API</text>
  
  <rect x="200" y="170" width="120" height="120" rx="8" fill="white" stroke="#8b5cf6" stroke-width="2" filter="url(#shadow8)"/>
  <text x="260" y="195" text-anchor="middle" font-family="Microsoft YaHei" font-size="11" fill="#64748b">500ms内完成</text>
  <text x="260" y="215" text-anchor="middle" font-family="Microsoft YaHei" font-size="11" fill="#64748b">OCR+场景分类</text>
  <text x="260" y="245" text-anchor="middle" font-family="Arial" font-size="10" fill="#8b5cf6">Layer 1-2</text>
  <text x="260" y="265" text-anchor="middle" font-family="Microsoft YaHei" font-size="10" fill="#8b5cf6">快速预处理</text>
  
  <rect x="340" y="170" width="120" height="120" rx="8" fill="white" stroke="#ec4899" stroke-width="2" filter="url(#shadow8)"/>
  <text x="400" y="195" text-anchor="middle" font-family="Microsoft YaHei" font-size="11" fill="#64748b">悬浮窗提示</text>
  <text x="400" y="215" text-anchor="middle" font-family="Microsoft YaHei" font-size="11" fill="#64748b">「去淘宝搜索」</text>
  <text x="400" y="245" text-anchor="middle" font-family="Arial" font-size="10" fill="#ec4899">Deep Link</text>
  <text x="400" y="265" text-anchor="middle" font-family="Microsoft YaHei" font-size="10" fill="#ec4899">跨应用跳转</text>
  
  <rect x="480" y="170" width="120" height="120" rx="8" fill="white" stroke="#f59e0b" stroke-width="2" filter="url(#shadow8)"/>
  <text x="540" y="195" text-anchor="middle" font-family="Microsoft YaHei" font-size="11" fill="#64748b">自然语言输入</text>
  <text x="540" y="215" text-anchor="middle" font-family="Microsoft YaHei" font-size="11" fill="#64748b">「上周咖啡发票」</text>
  <text x="540" y="245" text-anchor="middle" font-family="Arial" font-size="10" fill="#f59e0b">VLM + 向量</text>
  <text x="540" y="265" text-anchor="middle" font-family="Microsoft YaHei" font-size="10" fill="#f59e0b">语义匹配</text>
  
  <rect x="620" y="170" width="120" height="120" rx="8" fill="white" stroke="#22c55e" stroke-width="2" filter="url(#shadow8)"/>
  <text x="680" y="195" text-anchor="middle" font-family="Microsoft YaHei" font-size="11" fill="#64748b">精准定位图片</text>
  <text x="680" y="215" text-anchor="middle" font-family="Microsoft YaHei" font-size="11" fill="#64748b">一键找到目标</text>
  <text x="680" y="245" text-anchor="middle" font-family="Arial" font-size="10" fill="#22c55e">用一句话</text>
  <text x="680" y="265" text-anchor="middle" font-family="Microsoft YaHei" font-size="10" fill="#22c55e">找到任何截图</text>
  
  <!-- 用户情感曲线 -->
  <text x="60" y="330" font-family="Microsoft YaHei" font-size="12" fill="#64748b">用户情感</text>
  <line x1="120" y1="350" x2="680" y2="350" stroke="#e2e8f0" stroke-width="1"/>
  <path d="M120,370 Q190,390 260,355 Q330,320 400,340 Q470,360 540,330 Q610,300 680,310" fill="none" stroke="#22c55e" stroke-width="3"/>
  <circle cx="120" cy="370" r="5" fill="#ef4444"/><text x="120" y="400" text-anchor="middle" font-family="Microsoft YaHei" font-size="10" fill="#64748b">困扰</text>
  <circle cx="260" cy="355" r="5" fill="#f59e0b"/>
  <circle cx="400" cy="340" r="5" fill="#3b82f6"/>
  <circle cx="540" cy="330" r="5" fill="#8b5cf6"/>
  <circle cx="680" cy="310" r="5" fill="#22c55e"/><text x="680" y="400" text-anchor="middle" font-family="Microsoft YaHei" font-size="10" fill="#64748b">满意</text>
  
  <text x="400" y="430" text-anchor="middle" font-family="Microsoft YaHei" font-size="13" fill="#64748b">核心价值主张：「用一句话，找到任何截图」</text>
</svg>