<?xml version="1.0" encoding="UTF-8"?>
<svg xmlns="http://www.w3.org/2000/svg" width="800" height="500" viewBox="0 0 800 500">
  <defs>
    <filter id="shadow9"><feDropShadow dx="2" dy="2" stdDeviation="3" flood-opacity="0.15"/></filter>
  </defs>
  <rect width="800" height="500" fill="#1e293b"/>
  <text x="400" y="35" text-anchor="middle" font-family="Microsoft YaHei" font-size="22" font-weight="bold" fill="white">核心性能指标仪表盘</text>
  
  <!-- 仪表盘1: 首Token延迟 -->
  <g transform="translate(130, 180)">
    <circle cx="0" cy="0" r="80" fill="#334155" stroke="#475569" stroke-width="3"/>
    <path d="M-70,-35 A80,80 0 0,1 70,-35" fill="none" stroke="#22c55e" stroke-width="12" stroke-linecap="round"/>
    <text x="0" y="-10" text-anchor="middle" font-family="Arial" font-size="28" fill="white" font-weight="bold">3.2s</text>
    <text x="0" y="15" text-anchor="middle" font-family="Microsoft YaHei" font-size="11" fill="#94a3b8">首Token延迟</text>
    <text x="0" y="35" text-anchor="middle" font-family="Arial" font-size="10" fill="#22c55e">端侧 Qwen3-VL-2B</text>
  </g>
  
  <!-- 仪表盘2: 解码速度 -->
  <g transform="translate(310, 180)">
    <circle cx="0" cy="0" r="80" fill="#334155" stroke="#475569" stroke-width="3"/>
    <path d="M-70,-35 A80,80 0 0,1 70,-35" fill="none" stroke="#3b82f6" stroke-width="12" stroke-linecap="round"/>
    <text x="0" y="-10" text-anchor="middle" font-family="Arial" font-size="28" fill="white" font-weight="bold">14.0</text>
    <text x="0" y="15" text-anchor="middle" font-family="Microsoft YaHei" font-size="11" fill="#94a3b8">tokens/s</text>
    <text x="0" y="35" text-anchor="middle" font-family="Arial" font-size="10" fill="#3b82f6">解码速度</text>
  </g>
  
  <!-- 仪表盘3: 快速预处理 -->
  <g transform="translate(490, 180)">
    <circle cx="0" cy="0" r="80" fill="#334155" stroke="#475569" stroke-width="3"/>
    <path d="M-70,-35 A80,80 0 0,1 70,-35" fill="none" stroke="#f59e0b" stroke-width="12" stroke-linecap="round"/>
    <text x="0" y="-10" text-anchor="middle" font-family="Arial" font-size="28" fill="white" font-weight="bold">&lt;500</text>
    <text x="0" y="15" text-anchor="middle" font-family="Microsoft YaHei" font-size="11" fill="#94a3b8">ms</text>
    <text x="0" y="35" text-anchor="middle" font-family="Arial" font-size="10" fill="#f59e0b">快速预处理</text>
  </g>
  
  <!-- 仪表盘4: 能力倍数 -->
  <g transform="translate(670, 180)">
    <circle cx="0" cy="0" r="80" fill="#334155" stroke="#475569" stroke-width="3"/>
    <path d="M-70,-35 A80,80 0 0,1 70,-35" fill="none" stroke="#8b5cf6" stroke-width="12" stroke-linecap="round"/>
    <text x="0" y="-10" text-anchor="middle" font-family="Arial" font-size="28" fill="white" font-weight="bold">117×</text>
    <text x="0" y="15" text-anchor="middle" font-family="Microsoft YaHei" font-size="11" fill="#94a3b8">能力跃升</text>
    <text x="0" y="35" text-anchor="middle" font-family="Arial" font-size="10" fill="#8b5cf6">云端增强</text>
  </g>
  
  <!-- 底部数据卡片 -->
  <rect x="50" y="300" width="160" height="100" rx="10" fill="#334155" filter="url(#shadow9)"/>
  <text x="130" y="335" text-anchor="middle" font-family="Microsoft YaHei" font-size="12" fill="#94a3b8">模型大小</text>
  <text x="130" y="365" text-anchor="middle" font-family="Arial" font-size="24" fill="white" font-weight="bold">1.37GB</text>
  <text x="130" y="385" text-anchor="middle" font-family="Arial" font-size="10" fill="#22c55e">INT4量化</text>
  
  <rect x="230" y="300" width="160" height="100" rx="10" fill="#334155" filter="url(#shadow9)"/>
  <text x="310" y="335" text-anchor="middle" font-family="Microsoft YaHei" font-size="12" fill="#94a3b8">内存要求</text>
  <text x="310" y="365" text-anchor="middle" font-family="Arial" font-size="24" fill="white" font-weight="bold">≥4GB</text>
  <text x="310" y="385" text-anchor="middle" font-family="Arial" font-size="10" fill="#3b82f6">RAM</text>
  
  <rect x="410" y="300" width="160" height="100" rx="10" fill="#334155" filter="url(#shadow9)"/>
  <text x="490" y="335" text-anchor="middle" font-family="Microsoft YaHei" font-size="12" fill="#94a3b8">向量维度</text>
  <text x="490" y="365" text-anchor="middle" font-family="Arial" font-size="24" fill="white" font-weight="bold">384</text>
  <text x="490" y="385" text-anchor="middle" font-family="Arial" font-size="10" fill="#f59e0b">MiniLM-L6-v2</text>
  
  <rect x="590" y="300" width="160" height="100" rx="10" fill="#334155" filter="url(#shadow9)"/>
  <text x="670" y="335" text-anchor="middle" font-family="Microsoft YaHei" font-size="12" fill="#94a3b8">OCR延迟</text>
  <text x="670" y="365" text-anchor="middle" font-family="Arial" font-size="24" fill="white" font-weight="bold">&lt;200ms</text>
  <text x="670" y="385" text-anchor="middle" font-family="Arial" font-size="10" fill="#8b5cf6">ML Kit</text>
  
  <!-- 底部状态 -->
  <rect x="50" y="420" width="700" height="60" rx="10" fill="#334155"/>
  <text x="85" y="455" font-family="Microsoft YaHei" font-size="12" fill="#94a3b8">技术状态：</text>
  <circle cx="180" cy="450" r="8" fill="#22c55e"/><text x="195" y="455" font-family="Microsoft YaHei" font-size="11" fill="white">VLM推理 已完成</text>
  <circle cx="330" cy="450" r="8" fill="#22c55e"/><text x="345" y="455" font-family="Microsoft YaHei" font-size="11" fill="white">语义搜索 已完成</text>
  <circle cx="480" cy="450" r="8" fill="#f59e0b"/><text x="495" y="455" font-family="Microsoft YaHei" font-size="11" fill="white">快速OCR 规划中</text>
  <circle cx="630" cy="450" r="8" fill="#f59e0b"/><text x="645" y="455" font-family="Microsoft YaHei" font-size="11" fill="white">Reflection 规划中</text>
</svg>