<?xml version="1.0" encoding="UTF-8"?>
<svg xmlns="http://www.w3.org/2000/svg" width="800" height="600" viewBox="0 0 800 600">
  <defs>
    <filter id="shadow4"><feDropShadow dx="2" dy="2" stdDeviation="3" flood-opacity="0.2"/></filter>
  </defs>
  <rect width="800" height="600" fill="#fafafa"/>
  <text x="400" y="35" text-anchor="middle" font-family="Microsoft YaHei" font-size="22" font-weight="bold" fill="#1e293b">市场竞争格局 - 能力隐私象限</text>
  
  <!-- 坐标轴 -->
  <line x1="100" y1="530" x2="700" y2="530" stroke="#94a3b8" stroke-width="2"/>
  <line x1="100" y1="530" x2="100" y2="80" stroke="#94a3b8" stroke-width="2"/>
  <polygon points="700,530 690,525 690,535" fill="#94a3b8"/>
  <polygon points="100,80 95,90 105,90" fill="#94a3b8"/>
  <text x="400" y="565" text-anchor="middle" font-family="Microsoft YaHei" font-size="14" fill="#64748b">AI 能力</text>
  <text x="55" y="305" text-anchor="middle" font-family="Microsoft YaHei" font-size="14" fill="#64748b" transform="rotate(-90, 55, 305)">隐私保护</text>
  
  <!-- 象限背景 -->
  <rect x="100" y="80" width="300" height="225" fill="#dcfce7" opacity="0.5"/>
  <rect x="400" y="80" width="300" height="225" fill="#fef3c7" opacity="0.5"/>
  <rect x="100" y="305" width="300" height="225" fill="#fee2e2" opacity="0.5"/>
  <rect x="400" y="305" width="300" height="225" fill="#dbeafe" opacity="0.5"/>
  
  <!-- 象限标签 -->
  <text x="250" y="110" text-anchor="middle" font-family="Microsoft YaHei" font-size="12" fill="#166534" font-weight="bold">高隐私 / 低能力</text>
  <text x="550" y="110" text-anchor="middle" font-family="Microsoft YaHei" font-size="12" fill="#854d0e" font-weight="bold">高隐私 / 高能力</text>
  <text x="250" y="520" text-anchor="middle" font-family="Microsoft YaHei" font-size="12" fill="#991b1b" font-weight="bold">低隐私 / 低能力</text>
  <text x="550" y="520" text-anchor="middle" font-family="Microsoft YaHei" font-size="12" fill="#1e40af" font-weight="bold">低隐私 / 高能力</text>
  
  <!-- 竞品标记 -->
  <!-- 纯端侧方案 -->
  <circle cx="220" cy="180" r="35" fill="#22c55e" filter="url(#shadow4)"/>
  <text x="220" y="175" text-anchor="middle" font-family="Microsoft YaHei" font-size="11" fill="white" font-weight="bold">荣耀</text>
  <text x="220" y="192" text-anchor="middle" font-family="Microsoft YaHei" font-size="10" fill="white">任意门</text>
  
  <circle cx="300" cy="200" r="30" fill="#22c55e" filter="url(#shadow4)"/>
  <text x="300" y="195" text-anchor="middle" font-family="Microsoft YaHei" font-size="11" fill="white" font-weight="bold">OPPO</text>
  <text x="300" y="210" text-anchor="middle" font-family="Microsoft YaHei" font-size="10" fill="white">AI相册</text>
  
  <!-- 纯云端方案 -->
  <circle cx="580" cy="420" r="40" fill="#3b82f6" filter="url(#shadow4)"/>
  <text x="580" y="415" text-anchor="middle" font-family="Microsoft YaHei" font-size="11" fill="white" font-weight="bold">Google</text>
  <text x="580" y="432" text-anchor="middle" font-family="Microsoft YaHei" font-size="10" fill="white">Photos</text>
  
  <circle cx="500" cy="380" r="35" fill="#3b82f6" filter="url(#shadow4)"/>
  <text x="500" y="375" text-anchor="middle" font-family="Microsoft YaHei" font-size="11" fill="white" font-weight="bold">百度</text>
  <text x="500" y="392" text-anchor="middle" font-family="Microsoft YaHei" font-size="10" fill="white">网盘</text>
  
  <!-- 拾光 - 差异化定位 -->
  <circle cx="550" cy="160" r="50" fill="#8b5cf6" filter="url(#shadow4)" stroke="#fbbf24" stroke-width="4"/>
  <text x="550" y="150" text-anchor="middle" font-family="Microsoft YaHei" font-size="16" fill="white" font-weight="bold">拾光</text>
  <text x="550" y="172" text-anchor="middle" font-family="Microsoft YaHei" font-size="11" fill="white">端云协同</text>
  
  <!-- 图例 -->
  <rect x="620" y="50" width="170" height="120" rx="8" fill="white" stroke="#e2e8f0" stroke-width="1" filter="url(#shadow4)"/>
  <text x="705" y="75" text-anchor="middle" font-family="Microsoft YaHei" font-size="12" font-weight="bold" fill="#334155">图例</text>
  <circle cx="640" cy="100" r="8" fill="#22c55e"/><text x="655" y="104" font-family="Microsoft YaHei" font-size="11" fill="#334155">纯端侧方案</text>
  <circle cx="640" cy="125" r="8" fill="#3b82f6"/><text x="655" y="129" font-family="Microsoft YaHei" font-size="11" fill="#334155">纯云端方案</text>
  <circle cx="640" cy="150" r="8" fill="#8b5cf6" stroke="#fbbf24" stroke-width="2"/><text x="655" y="154" font-family="Microsoft YaHei" font-size="11" fill="#334155">拾光（差异化）</text>
</svg>