<?xml version="1.0" encoding="UTF-8"?>
<svg xmlns="http://www.w3.org/2000/svg" width="800" height="550" viewBox="0 0 800 550">
  <defs>
    <linearGradient id="g1" x1="0%" y1="0%" x2="0%" y2="100%">
      <stop offset="0%" style="stop-color:#667eea"/>
      <stop offset="100%" style="stop-color:#764ba2"/>
    </linearGradient>
    <linearGradient id="g2" x1="0%" y1="0%" x2="0%" y2="100%">
      <stop offset="0%" style="stop-color:#f093fb"/>
      <stop offset="100%" style="stop-color:#f5576c"/>
    </linearGradient>
    <linearGradient id="g3" x1="0%" y1="0%" x2="0%" y2="100%">
      <stop offset="0%" style="stop-color:#4facfe"/>
      <stop offset="100%" style="stop-color:#00f2fe"/>
    </linearGradient>
    <linearGradient id="g4" x1="0%" y1="0%" x2="0%" y2="100%">
      <stop offset="0%" style="stop-color:#43e97b"/>
      <stop offset="100%" style="stop-color:#38f9d7"/>
    </linearGradient>
    <filter id="shadow"><feDropShadow dx="3" dy="3" stdDeviation="4" flood-opacity="0.2"/></filter>
  </defs>
  <rect width="800" height="550" fill="#f8fafc"/>
  <text x="400" y="35" text-anchor="middle" font-family="Microsoft YaHei" font-size="22" font-weight="bold" fill="#1e293b">拾光系统分层架构</text>
  
  <!-- 用户界面层 -->
  <path d="M200,70 L600,70 L550,150 L250,150 Z" fill="url(#g1)" filter="url(#shadow)"/>
  <text x="400" y="115" text-anchor="middle" font-family="Microsoft YaHei" font-size="16" fill="white" font-weight="bold">用户界面层</text>
  <text x="400" y="138" text-anchor="middle" font-family="Arial" font-size="11" fill="rgba(255,255,255,0.9)">自然语言搜索 | 相册浏览 | 隐私保险箱</text>
  
  <!-- 智能处理层 -->
  <path d="M250,160 L550,160 L500,240 L300,240 Z" fill="url(#g2)" filter="url(#shadow)"/>
  <text x="400" y="205" text-anchor="middle" font-family="Microsoft YaHei" font-size="16" fill="white" font-weight="bold">智能处理层</text>
  <text x="400" y="228" text-anchor="middle" font-family="Arial" font-size="11" fill="rgba(255,255,255,0.9)">多层处理管道 | VLM推理 | 语义向量化</text>
  
  <!-- 数据存储层 -->
  <path d="M300,250 L500,250 L450,330 L350,330 Z" fill="url(#g3)" filter="url(#shadow)"/>
  <text x="400" y="295" text-anchor="middle" font-family="Microsoft YaHei" font-size="16" fill="white" font-weight="bold">数据存储层</text>
  <text x="400" y="318" text-anchor="middle" font-family="Arial" font-size="11" fill="rgba(255,255,255,0.9)">向量数据库 | 层次化记忆</text>
  
  <!-- 系统服务层 -->
  <path d="M350,340 L450,340 L420,400 L380,400 Z" fill="url(#g4)" filter="url(#shadow)"/>
  <text x="400" y="375" text-anchor="middle" font-family="Microsoft YaHei" font-size="14" fill="white" font-weight="bold">系统服务</text>
  
  <!-- 右侧技术栈 -->
  <rect x="620" y="70" width="160" height="330" rx="10" fill="white" stroke="#e2e8f0" stroke-width="2" filter="url(#shadow)"/>
  <text x="700" y="95" text-anchor="middle" font-family="Microsoft YaHei" font-size="14" font-weight="bold" fill="#334155">核心技术栈</text>
  <line x1="630" y1="105" x2="770" y2="105" stroke="#e2e8f0" stroke-width="1"/>
  <text x="700" y="130" text-anchor="middle" font-family="Arial" font-size="11" fill="#64748b">Qwen3-VL-2B/235B</text>
  <text x="700" y="160" text-anchor="middle" font-family="Arial" font-size="11" fill="#64748b">MNN Framework</text>
  <text x="700" y="190" text-anchor="middle" font-family="Arial" font-size="11" fill="#64748b">MiniLM-L6-v2</text>
  <text x="700" y="220" text-anchor="middle" font-family="Arial" font-size="11" fill="#64748b">Google ML Kit</text>
  <text x="700" y="250" text-anchor="middle" font-family="Arial" font-size="11" fill="#64748b">ZXing</text>
  <text x="700" y="280" text-anchor="middle" font-family="Arial" font-size="11" fill="#64748b">SQLite + Room</text>
  <text x="700" y="310" text-anchor="middle" font-family="Arial" font-size="11" fill="#64748b">Android Jetpack</text>
  <text x="700" y="340" text-anchor="middle" font-family="Arial" font-size="11" fill="#64748b">Kotlin Coroutines</text>
  <text x="700" y="370" text-anchor="middle" font-family="Arial" font-size="11" fill="#64748b">EncryptedFile API</text>
  
  <!-- 左侧特性 -->
  <rect x="20" y="70" width="160" height="330" rx="10" fill="white" stroke="#e2e8f0" stroke-width="2" filter="url(#shadow)"/>
  <text x="100" y="95" text-anchor="middle" font-family="Microsoft YaHei" font-size="14" font-weight="bold" fill="#334155">核心特性</text>
  <line x1="30" y1="105" x2="170" y2="105" stroke="#e2e8f0" stroke-width="1"/>
  <circle cx="45" cy="130" r="8" fill="#667eea"/><text x="55" y="134" font-family="Microsoft YaHei" font-size="11" fill="#334155">隐私优先</text>
  <circle cx="45" cy="160" r="8" fill="#f5576c"/><text x="55" y="164" font-family="Microsoft YaHei" font-size="11" fill="#334155">端云协同</text>
  <circle cx="45" cy="190" r="8" fill="#4facfe"/><text x="55" y="194" font-family="Microsoft YaHei" font-size="11" fill="#334155">语义搜索</text>
  <circle cx="45" cy="220" r="8" fill="#43e97b"/><text x="55" y="224" font-family="Microsoft YaHei" font-size="11" fill="#334155">智能记忆</text>
  <circle cx="45" cy="250" r="8" fill="#fbbf24"/><text x="55" y="254" font-family="Microsoft YaHei" font-size="11" fill="#334155">快速响应</text>
  <circle cx="45" cy="280" r="8" fill="#a78bfa"/><text x="55" y="284" font-family="Microsoft YaHei" font-size="11" fill="#334155">跨品牌</text>
  <circle cx="45" cy="310" r="8" fill="#fb7185"/><text x="55" y="314" font-family="Microsoft YaHei" font-size="11" fill="#334155">个性化</text>
  <circle cx="45" cy="340" r="8" fill="#22d3ee"/><text x="55" y="344" font-family="Microsoft YaHei" font-size="11" fill="#334155">安全加密</text>
  
  <!-- 底部说明 -->
  <rect x="100" y="430" width="600" height="100" rx="10" fill="#f1f5f9" stroke="#cbd5e1" stroke-width="1"/>
  <text x="400" y="460" text-anchor="middle" font-family="Microsoft YaHei" font-size="13" fill="#475569">端侧默认模式：Qwen3-VL-2B（2B参数）→ 本地推理 → 数据不出端</text>
  <text x="400" y="490" text-anchor="middle" font-family="Microsoft YaHei" font-size="13" fill="#475569">云端增强模式：Qwen3-VL-235B（235B参数）→ API调用 → 117倍能力提升</text>
  <text x="400" y="515" text-anchor="middle" font-family="Microsoft YaHei" font-size="12" fill="#94a3b8">用户可在隐私保护与强大能力之间自由切换</text>
</svg>