<?xml version="1.0" encoding="UTF-8"?>
<svg xmlns="http://www.w3.org/2000/svg" width="800" height="600" viewBox="0 0 800 600">
  <defs>
    <filter id="shadow3"><feDropShadow dx="2" dy="2" stdDeviation="3" flood-opacity="0.15"/></filter>
  </defs>
  <rect width="800" height="600" fill="#f8fafc"/>
  <text x="400" y="35" text-anchor="middle" font-family="Microsoft YaHei" font-size="22" font-weight="bold" fill="#1e293b">技术成熟度评估 (TRL)</text>
  
  <!-- 雷达图背景 -->
  <g transform="translate(300, 320)">
    <!-- 同心圆 -->
    <circle cx="0" cy="0" r="200" fill="none" stroke="#e2e8f0" stroke-width="1"/>
    <circle cx="0" cy="0" r="160" fill="none" stroke="#e2e8f0" stroke-width="1"/>
    <circle cx="0" cy="0" r="120" fill="none" stroke="#e2e8f0" stroke-width="1"/>
    <circle cx="0" cy="0" r="80" fill="none" stroke="#e2e8f0" stroke-width="1"/>
    <circle cx="0" cy="0" r="40" fill="none" stroke="#e2e8f0" stroke-width="1"/>
    
    <!-- 轴线 -->
    <line x1="0" y1="-200" x2="0" y2="200" stroke="#cbd5e1" stroke-width="1"/>
    <line x1="-173" y1="-100" x2="173" y2="100" stroke="#cbd5e1" stroke-width="1"/>
    <line x1="-173" y1="100" x2="173" y2="-100" stroke="#cbd5e1" stroke-width="1"/>
    
    <!-- TRL数据多边形 - 端侧VLM(TRL7), 端云协同(TRL5), 多层管道(TRL4), 层次记忆(TRL3), 偏好学习(TRL3) -->
    <polygon points="0,-200 138,-100 86,162 -86,162 -138,-100" fill="rgba(99,102,241,0.3)" stroke="#6366f1" stroke-width="3"/>
    
    <!-- 数据点 -->
    <circle cx="0" cy="-200" r="8" fill="#6366f1"/><text x="0" y="-215" text-anchor="middle" font-family="Microsoft YaHei" font-size="12" fill="#1e293b" font-weight="bold">端侧VLM</text><text x="0" y="-232" text-anchor="middle" font-family="Arial" font-size="11" fill="#6366f1">TRL 7</text>
    <circle cx="138" cy="-100" r="8" fill="#6366f1"/><text x="175" y="-95" font-family="Microsoft YaHei" font-size="12" fill="#1e293b" font-weight="bold">端云协同</text><text x="175" y="-78" font-family="Arial" font-size="11" fill="#6366f1">TRL 5</text>
    <circle cx="86" cy="162" r="8" fill="#6366f1"/><text x="120" y="185" font-family="Microsoft YaHei" font-size="12" fill="#1e293b" font-weight="bold">多层管道</text><text x="120" y="202" font-family="Arial" font-size="11" fill="#6366f1">TRL 4</text>
    <circle cx="-86" cy="162" r="8" fill="#6366f1"/><text x="-120" y="185" text-anchor="end" font-family="Microsoft YaHei" font-size="12" fill="#1e293b" font-weight="bold">层次记忆</text><text x="-120" y="202" text-anchor="end" font-family="Arial" font-size="11" fill="#6366f1">TRL 3</text>
    <circle cx="-138" cy="-100" r="8" fill="#6366f1"/><text x="-175" y="-95" text-anchor="end" font-family="Microsoft YaHei" font-size="12" fill="#1e293b" font-weight="bold">偏好学习</text><text x="-175" y="-78" text-anchor="end" font-family="Arial" font-size="11" fill="#6366f1">TRL 3</text>
    
    <!-- 刻度标签 -->
    <text x="25" y="-35" font-family="Arial" font-size="10" fill="#94a3b8">TRL2</text>
    <text x="25" y="-75" font-family="Arial" font-size="10" fill="#94a3b8">TRL4</text>
    <text x="25" y="-115" font-family="Arial" font-size="10" fill="#94a3b8">TRL6</text>
    <text x="25" y="-155" font-family="Arial" font-size="10" fill="#94a3b8">TRL8</text>
  </g>
  
  <!-- 右侧图例 -->
  <rect x="560" y="80" width="220" height="450" rx="10" fill="white" stroke="#e2e8f0" stroke-width="1" filter="url(#shadow3)"/>
  <text x="670" y="110" text-anchor="middle" font-family="Microsoft YaHei" font-size="14" font-weight="bold" fill="#1e293b">TRL 等级说明</text>
  <line x1="570" y1="125" x2="770" y2="125" stroke="#e2e8f0"/>
  
  <rect x="575" y="140" width="20" height="20" rx="3" fill="#22c55e"/>
  <text x="605" y="155" font-family="Microsoft YaHei" font-size="11" fill="#334155">TRL 7-9: 已验证/部署</text>
  <rect x="575" y="175" width="20" height="20" rx="3" fill="#3b82f6"/>
  <text x="605" y="190" font-family="Microsoft YaHei" font-size="11" fill="#334155">TRL 5-6: 组件验证</text>
  <rect x="575" y="210" width="20" height="20" rx="3" fill="#f59e0b"/>
  <text x="605" y="225" font-family="Microsoft YaHei" font-size="11" fill="#334155">TRL 3-4: 概念验证</text>
  <rect x="575" y="245" width="20" height="20" rx="3" fill="#ef4444"/>
  <text x="605" y="260" font-family="Microsoft YaHei" font-size="11" fill="#334155">TRL 1-2: 基础研究</text>
  
  <line x1="570" y1="285" x2="770" y2="285" stroke="#e2e8f0"/>
  <text x="670" y="310" text-anchor="middle" font-family="Microsoft YaHei" font-size="13" font-weight="bold" fill="#1e293b">项目技术评估</text>
  
  <text x="580" y="340" font-family="Microsoft YaHei" font-size="11" fill="#334155">端侧VLM部署</text>
  <rect x="580" y="350" width="180" height="12" rx="2" fill="#e2e8f0"/><rect x="580" y="350" width="180" height="12" rx="2" fill="#22c55e"/>
  <text x="765" y="360" text-anchor="end" font-family="Arial" font-size="10" fill="white" font-weight="bold">TRL7</text>
  
  <text x="580" y="385" font-family="Microsoft YaHei" font-size="11" fill="#334155">端云协同推理</text>
  <rect x="580" y="395" width="180" height="12" rx="2" fill="#e2e8f0"/><rect x="580" y="395" width="128" height="12" rx="2" fill="#3b82f6"/>
  <text x="703" y="405" text-anchor="end" font-family="Arial" font-size="10" fill="white" font-weight="bold">TRL5</text>
  
  <text x="580" y="430" font-family="Microsoft YaHei" font-size="11" fill="#334155">多层处理管道</text>
  <rect x="580" y="440" width="180" height="12" rx="2" fill="#e2e8f0"/><rect x="580" y="440" width="102" height="12" rx="2" fill="#f59e0b"/>
  <text x="677" y="450" text-anchor="end" font-family="Arial" font-size="10" fill="white" font-weight="bold">TRL4</text>
  
  <text x="580" y="475" font-family="Microsoft YaHei" font-size="11" fill="#334155">层次化记忆</text>
  <rect x="580" y="485" width="180" height="12" rx="2" fill="#e2e8f0"/><rect x="580" y="485" width="77" height="12" rx="2" fill="#f59e0b"/>
  <text x="652" y="495" text-anchor="end" font-family="Arial" font-size="10" fill="white" font-weight="bold">TRL3</text>
</svg>