<?xml version="1.0" encoding="UTF-8"?>
<svg xmlns="http://www.w3.org/2000/svg" width="800" height="500" viewBox="0 0 800 500">
  <defs>
    <linearGradient id="ph1" x1="0%" y1="0%" x2="100%" y2="0%">
      <stop offset="0%" style="stop-color:#22c55e"/><stop offset="100%" style="stop-color:#16a34a"/>
    </linearGradient>
    <linearGradient id="ph2" x1="0%" y1="0%" x2="100%" y2="0%">
      <stop offset="0%" style="stop-color:#3b82f6"/><stop offset="100%" style="stop-color:#2563eb"/>
    </linearGradient>
    <linearGradient id="ph3" x1="0%" y1="0%" x2="100%" y2="0%">
      <stop offset="0%" style="stop-color:#8b5cf6"/><stop offset="100%" style="stop-color:#7c3aed"/>
    </linearGradient>
    <linearGradient id="ph4" x1="0%" y1="0%" x2="100%" y2="0%">
      <stop offset="0%" style="stop-color:#f59e0b"/><stop offset="100%" style="stop-color:#d97706"/>
    </linearGradient>
    <linearGradient id="ph5" x1="0%" y1="0%" x2="100%" y2="0%">
      <stop offset="0%" style="stop-color:#ec4899"/><stop offset="100%" style="stop-color:#db2777"/>
    </linearGradient>
    <linearGradient id="ph6" x1="0%" y1="0%" x2="100%" y2="0%">
      <stop offset="0%" style="stop-color:#64748b"/><stop offset="100%" style="stop-color:#475569"/>
    </linearGradient>
    <filter id="shadow6"><feDropShadow dx="2" dy="2" stdDeviation="2" flood-opacity="0.15"/></filter>
  </defs>
  <rect width="800" height="500" fill="#fafafa"/>
  <text x="400" y="35" text-anchor="middle" font-family="Microsoft YaHei" font-size="22" font-weight="bold" fill="#1e293b">项目开发时间线（2026年2月-5月）</text>
  
  <!-- 时间轴 -->
  <line x1="150" y1="80" x2="750" y2="80" stroke="#cbd5e1" stroke-width="2"/>
  <text x="187" y="70" text-anchor="middle" font-family="Arial" font-size="11" fill="#64748b">1月</text>
  <text x="287" y="70" text-anchor="middle" font-family="Arial" font-size="11" fill="#64748b">2月</text>
  <text x="387" y="70" text-anchor="middle" font-family="Arial" font-size="11" fill="#64748b">3月</text>
  <text x="487" y="70" text-anchor="middle" font-family="Arial" font-size="11" fill="#64748b">4月</text>
  <text x="587" y="70" text-anchor="middle" font-family="Arial" font-size="11" fill="#64748b">5月</text>
  
  <!-- 月份分隔线 -->
  <line x1="237" y1="80" x2="237" y2="420" stroke="#e2e8f0" stroke-width="1" stroke-dasharray="5,5"/>
  <line x1="337" y1="80" x2="337" y2="420" stroke="#e2e8f0" stroke-width="1" stroke-dasharray="5,5"/>
  <line x1="437" y1="80" x2="437" y2="420" stroke="#e2e8f0" stroke-width="1" stroke-dasharray="5,5"/>
  <line x1="537" y1="80" x2="537" y2="420" stroke="#e2e8f0" stroke-width="1" stroke-dasharray="5,5"/>
  
  <!-- Phase 1: MVP（已完成） -->
  <text x="30" y="125" font-family="Microsoft YaHei" font-size="12" fill="#334155" font-weight="bold">Phase 1</text>
  <text x="30" y="142" font-family="Microsoft YaHei" font-size="10" fill="#64748b">MVP</text>
  <rect x="150" y="110" width="87" height="40" rx="6" fill="url(#ph1)" filter="url(#shadow6)"/>
  <text x="193" y="135" text-anchor="middle" font-family="Microsoft YaHei" font-size="10" fill="white">已完成 ✓</text>
  
  <!-- Phase 2: 快速识别 -->
  <text x="30" y="185" font-family="Microsoft YaHei" font-size="12" fill="#334155" font-weight="bold">Phase 2</text>
  <text x="30" y="202" font-family="Microsoft YaHei" font-size="10" fill="#64748b">快速识别</text>
  <rect x="237" y="170" width="50" height="40" rx="6" fill="url(#ph2)" filter="url(#shadow6)"/>
  <text x="262" y="195" text-anchor="middle" font-family="Microsoft YaHei" font-size="9" fill="white">OCR</text>
  
  <!-- Phase 3: 智能感知 -->
  <text x="30" y="245" font-family="Microsoft YaHei" font-size="12" fill="#334155" font-weight="bold">Phase 3</text>
  <text x="30" y="262" font-family="Microsoft YaHei" font-size="10" fill="#64748b">智能感知</text>
  <rect x="287" y="230" width="50" height="40" rx="6" fill="url(#ph3)" filter="url(#shadow6)"/>
  <text x="312" y="255" text-anchor="middle" font-family="Microsoft YaHei" font-size="9" fill="white">监听</text>
  
  <!-- Phase 4: 记忆系统 -->
  <text x="30" y="305" font-family="Microsoft YaHei" font-size="12" fill="#334155" font-weight="bold">Phase 4</text>
  <text x="30" y="322" font-family="Microsoft YaHei" font-size="10" fill="#64748b">记忆系统</text>
  <rect x="337" y="290" width="66" height="40" rx="6" fill="url(#ph4)" filter="url(#shadow6)"/>
  <text x="370" y="315" text-anchor="middle" font-family="Microsoft YaHei" font-size="9" fill="white">Reflection</text>
  
  <!-- Phase 5: 体验优化 -->
  <text x="30" y="365" font-family="Microsoft YaHei" font-size="12" fill="#334155" font-weight="bold">Phase 5</text>
  <text x="30" y="382" font-family="Microsoft YaHei" font-size="10" fill="#64748b">体验优化</text>
  <rect x="403" y="350" width="66" height="40" rx="6" fill="url(#ph5)" filter="url(#shadow6)"/>
  <text x="436" y="375" text-anchor="middle" font-family="Microsoft YaHei" font-size="9" fill="white">UI/UX</text>
  
  <!-- Phase 6: 提交准备 -->
  <text x="30" y="425" font-family="Microsoft YaHei" font-size="12" fill="#334155" font-weight="bold">提交</text>
  <text x="30" y="442" font-family="Microsoft YaHei" font-size="10" fill="#64748b">材料准备</text>
  <rect x="469" y="410" width="68" height="40" rx="6" fill="url(#ph6)" filter="url(#shadow6)"/>
  <text x="503" y="435" text-anchor="middle" font-family="Microsoft YaHei" font-size="9" fill="white">文档视频</text>
  
  <!-- 里程碑 -->
  <polygon points="287,95 282,80 292,80" fill="#ef4444"/>
  <text x="287" y="108" text-anchor="middle" font-family="Arial" font-size="9" fill="#ef4444" font-weight="bold">M1</text>
  
  <polygon points="337,95 332,80 342,80" fill="#ef4444"/>
  <text x="337" y="108" text-anchor="middle" font-family="Arial" font-size="9" fill="#ef4444" font-weight="bold">M2</text>
  
  <polygon points="403,95 398,80 408,80" fill="#ef4444"/>
  <text x="403" y="108" text-anchor="middle" font-family="Arial" font-size="9" fill="#ef4444" font-weight="bold">M3</text>
  
  <polygon points="469,95 464,80 474,80" fill="#ef4444"/>
  <text x="469" y="108" text-anchor="middle" font-family="Arial" font-size="9" fill="#ef4444" font-weight="bold">M4</text>
  
  <polygon points="537,95 532,80 542,80" fill="#ef4444"/>
  <text x="537" y="108" text-anchor="middle" font-family="Arial" font-size="9" fill="#ef4444" font-weight="bold">M5</text>
  
  <!-- 图例 -->
  <rect x="600" y="120" width="180" height="180" rx="8" fill="white" stroke="#e2e8f0" filter="url(#shadow6)"/>
  <text x="690" y="145" text-anchor="middle" font-family="Microsoft YaHei" font-size="12" font-weight="bold" fill="#334155">里程碑说明</text>
  <text x="620" y="170" font-family="Arial" font-size="10" fill="#ef4444" font-weight="bold">M1</text><text x="640" y="170" font-family="Microsoft YaHei" font-size="10" fill="#64748b">2/14 快速识别</text>
  <text x="620" y="195" font-family="Arial" font-size="10" fill="#ef4444" font-weight="bold">M2</text><text x="640" y="195" font-family="Microsoft YaHei" font-size="10" fill="#64748b">2/28 智能感知</text>
  <text x="620" y="220" font-family="Arial" font-size="10" fill="#ef4444" font-weight="bold">M3</text><text x="640" y="220" font-family="Microsoft YaHei" font-size="10" fill="#64748b">3/21 记忆系统</text>
  <text x="620" y="245" font-family="Arial" font-size="10" fill="#ef4444" font-weight="bold">M4</text><text x="640" y="245" font-family="Microsoft YaHei" font-size="10" fill="#64748b">4/11 版本冻结</text>
  <text x="620" y="270" font-family="Arial" font-size="10" fill="#ef4444" font-weight="bold">M5</text><text x="640" y="270" font-family="Microsoft YaHei" font-size="10" fill="#64748b">4/30 材料提交</text>
</svg>