<?xml version="1.0" encoding="UTF-8"?>
<svg xmlns="http://www.w3.org/2000/svg" width="800" height="420" viewBox="0 0 800 420">
  <defs>
    <linearGradient id="edgeGrad" x1="0%" y1="0%" x2="100%" y2="0%">
      <stop offset="0%" style="stop-color:#2A9D8F"/><stop offset="100%" style="stop-color:#52B788"/>
    </linearGradient>
    <linearGradient id="cloudGrad" x1="0%" y1="0%" x2="100%" y2="0%">
      <stop offset="0%" style="stop-color:#4A6FA5"/><stop offset="100%" style="stop-color:#6090C0"/>
    </linearGradient>
    <filter id="shadowIM"><feDropShadow dx="1" dy="2" stdDeviation="2" flood-opacity="0.1"/></filter>
  </defs>
  
  <rect width="800" height="420" fill="#FAFBFC"/>
  
  <!-- 标题 -->
  <text x="400" y="35" text-anchor="middle" font-family="SimHei, sans-serif" font-size="18" font-weight="bold" fill="#2C3E50">端云协同推理模式决策流程</text>
  
  <!-- 决策起点 -->
  <g transform="translate(350, 70)">
    <ellipse cx="50" cy="25" rx="50" ry="25" fill="#F4A261" filter="url(#shadowIM)"/>
    <text x="50" y="30" text-anchor="middle" font-family="SimHei, sans-serif" font-size="11" fill="white" font-weight="bold">图片输入</text>
  </g>
  
  <!-- 决策菱形 -->
  <g transform="translate(350, 140)">
    <polygon points="50,0 100,40 50,80 0,40" fill="#FFF3E0" stroke="#F4A261" stroke-width="2"/>
    <text x="50" y="35" text-anchor="middle" font-family="SimHei, sans-serif" font-size="10" fill="#E65100">隐私模式</text>
    <text x="50" y="50" text-anchor="middle" font-family="SimHei, sans-serif" font-size="10" fill="#E65100">开启？</text>
  </g>
  <line x1="400" y1="95" x2="400" y2="140" stroke="#7F8C8D" stroke-width="2" marker-end="url(#arrowIM)"/>
  
  <!-- 左侧：端侧推理 -->
  <line x1="350" y1="180" x2="200" y2="180" stroke="#2A9D8F" stroke-width="2"/>
  <text x="275" y="170" text-anchor="middle" font-family="SimSun, serif" font-size="10" fill="#2A9D8F">是</text>
  
  <g transform="translate(50, 230)">
    <rect x="0" y="0" width="300" height="150" rx="12" fill="url(#edgeGrad)" filter="url(#shadowIM)"/>
    <text x="150" y="30" text-anchor="middle" font-family="SimHei, sans-serif" font-size="14" fill="white" font-weight="bold">🔒 端侧推理模式</text>
    <line x1="20" y1="45" x2="280" y2="45" stroke="rgba(255,255,255,0.3)" stroke-width="1"/>
    <text x="20" y="68" font-family="SimSun, serif" font-size="10" fill="white">• 模型: Qwen3-VL-2B (INT4)</text>
    <text x="20" y="88" font-family="SimSun, serif" font-size="10" fill="white">• 大小: 约1.37GB</text>
    <text x="20" y="108" font-family="SimSun, serif" font-size="10" fill="white">• 延迟: 首Token ~3s, 14 tok/s</text>
    <text x="20" y="128" font-family="SimSun, serif" font-size="10" fill="white">• 特点: 数据不出设备，完全离线可用</text>
    <text x="150" y="145" text-anchor="middle" font-family="SimSun, serif" font-size="9" fill="rgba(255,255,255,0.8)">(团队实测验证)</text>
  </g>
  <line x1="200" y1="180" x2="200" y2="230" stroke="#2A9D8F" stroke-width="2" marker-end="url(#arrowIM)"/>
  
  <!-- 右侧：云端推理 -->
  <line x1="450" y1="180" x2="600" y2="180" stroke="#4A6FA5" stroke-width="2"/>
  <text x="525" y="170" text-anchor="middle" font-family="SimSun, serif" font-size="10" fill="#4A6FA5">否</text>
  
  <g transform="translate(450, 230)">
    <rect x="0" y="0" width="300" height="150" rx="12" fill="url(#cloudGrad)" filter="url(#shadowIM)"/>
    <text x="150" y="30" text-anchor="middle" font-family="SimHei, sans-serif" font-size="14" fill="white" font-weight="bold">☁️ 云端增强模式</text>
    <line x1="20" y1="45" x2="280" y2="45" stroke="rgba(255,255,255,0.3)" stroke-width="1"/>
    <text x="20" y="68" font-family="SimSun, serif" font-size="10" fill="white">• 模型: Qwen3-VL-235B</text>
    <text x="20" y="88" font-family="SimSun, serif" font-size="10" fill="white">• 参数量: 端侧的117倍</text>
    <text x="20" y="108" font-family="SimSun, serif" font-size="10" fill="white">• 超时: 0.8s限时，最多3次重试</text>
    <text x="20" y="128" font-family="SimSun, serif" font-size="10" fill="white">• 回退: 超时自动降级端侧</text>
    <text x="150" y="145" text-anchor="middle" font-family="SimSun, serif" font-size="9" fill="rgba(255,255,255,0.8)">(技术方案设计)</text>
  </g>
  <line x1="600" y1="180" x2="600" y2="230" stroke="#4A6FA5" stroke-width="2" marker-end="url(#arrowIM)"/>
  
  <!-- 箭头定义 -->
  <defs>
    <marker id="arrowIM" markerWidth="10" markerHeight="7" refX="9" refY="3.5" orient="auto">
      <polygon points="0 0, 10 3.5, 0 7" fill="#7F8C8D"/>
    </marker>
  </defs>
</svg>