<?xml version="1.0" encoding="UTF-8"?>
<svg xmlns="http://www.w3.org/2000/svg" width="320" height="120" viewBox="0 0 320 120">
  <defs>
    <linearGradient id="beamGrad" x1="0%" y1="0%" x2="100%" y2="100%">
      <stop offset="0%" style="stop-color:#F4A261"/>
      <stop offset="100%" style="stop-color:#E9C46A"/>
    </linearGradient>
    <filter id="beamGlow">
      <feDropShadow dx="0" dy="2" stdDeviation="5" flood-color="#F4A261" flood-opacity="0.35"/>
    </filter>
  </defs>
  
  <rect width="320" height="120" fill="#FDFCF0"/>
  
  <!-- 光芒聚合 -->
  <g transform="translate(12, 10)">
    <!-- 中心聚合点 -->
    <circle cx="50" cy="50" r="18" fill="url(#beamGrad)" filter="url(#beamGlow)"/>
    <circle cx="50" cy="50" r="8" fill="#FDFCF0" opacity="0.6"/>
    <!-- 四道光芒 -->
    <path d="M50 10 L55 32 L50 28 L45 32 Z" fill="#F4A261" opacity="0.8"/>
    <path d="M90 50 L68 55 L72 50 L68 45 Z" fill="#2A9D8F" opacity="0.8"/>
    <path d="M50 90 L45 68 L50 72 L55 68 Z" fill="#E9C46A" opacity="0.8"/>
    <path d="M10 50 L32 45 L28 50 L32 55 Z" fill="#E76F51" opacity="0.8"/>
    <!-- 外围光点 -->
    <circle cx="22" cy="22" r="4" fill="#F4A261" opacity="0.5"/>
    <circle cx="78" cy="22" r="4" fill="#2A9D8F" opacity="0.5"/>
    <circle cx="78" cy="78" r="4" fill="#E9C46A" opacity="0.5"/>
    <circle cx="22" cy="78" r="4" fill="#E76F51" opacity="0.5"/>
  </g>
  
  <text x="115" y="50" font-family="-apple-system, sans-serif" font-size="26" font-weight="700" fill="#353535">拾光团队</text>
  <text x="115" y="78" font-family="-apple-system, sans-serif" font-size="13" font-weight="500" fill="#2A9D8F" letter-spacing="0.5">Seeklight Team</text>
</svg>