<?xml version="1.0" encoding="UTF-8"?>
<svg xmlns="http://www.w3.org/2000/svg" width="300" height="200" viewBox="0 0 300 200">
  <defs>
    <linearGradient id="teamGrad2" x1="0%" y1="0%" x2="100%" y2="100%">
      <stop offset="0%" style="stop-color:#60A5FA" />
      <stop offset="100%" style="stop-color:#3B82F6" />
    </linearGradient>
  </defs>
  
  <rect width="300" height="200" fill="#FFFBEB"/>
  
  <!-- 光芒齿轮图标 -->
  <g transform="translate(30, 35)">
    <!-- 外层光芒 -->
    <g stroke="#FBBF24" stroke-width="3" opacity="0.6">
      <line x1="60" y1="5" x2="60" y2="15"/>
      <line x1="60" y1="105" x2="60" y2="115"/>
      <line x1="5" y1="60" x2="15" y2="60"/>
      <line x1="105" y1="60" x2="115" y2="60"/>
    </g>
    
    <!-- 齿轮 -->
    <circle cx="60" cy="60" r="40" fill="none" stroke="#F59E0B" stroke-width="8"/>
    <!-- 齿轮齿 -->
    <g fill="#F59E0B">
      <rect x="55" y="15" width="10" height="12" rx="2"/>
      <rect x="55" y="93" width="10" height="12" rx="2"/>
      <rect x="15" y="55" width="12" height="10" rx="2"/>
      <rect x="93" y="55" width="12" height="10" rx="2"/>
      <rect x="25" y="25" width="10" height="10" rx="2" transform="rotate(45 30 30)"/>
      <rect x="85" y="25" width="10" height="10" rx="2" transform="rotate(45 90 30)"/>
      <rect x="25" y="85" width="10" height="10" rx="2" transform="rotate(45 30 90)"/>
      <rect x="85" y="85" width="10" height="10" rx="2" transform="rotate(45 90 90)"/>
    </g>
    
    <!-- 内部 -->
    <circle cx="60" cy="60" r="25" fill="#FEF3C7"/>
    <circle cx="60" cy="60" r="15" fill="url(#teamGrad2)"/>
    <circle cx="60" cy="60" r="5" fill="#FFFFFF"/>
  </g>
  
  <!-- 文字 -->
  <text x="155" y="80" font-family="SimHei" font-size="24" font-weight="bold" fill="#92400E">拾光团队</text>
  <text x="155" y="110" font-family="Arial" font-size="14" fill="#D97706">SeekLight Team</text>
  <text x="155" y="135" font-family="SimSun" font-size="10" fill="#92400E" opacity="0.6">技术驱动 · 创新未来</text>
</svg>